<?xml version="1.0" encoding="UTF-8"?>
<svg width="24px" height="24px" viewBox="0 0 24 24" version="1.1" xmlns="http://www.w3.org/2000/svg" xmlns:xlink="http://www.w3.org/1999/xlink">
    <!-- Generator: sketchtool 58 (101010) - https://sketch.com -->
    <title>5403CCC6-1FB2-4F66-B4C1-6F47FC6C76BE</title>
    <desc>Created with sketchtool.</desc>
    <g id="DESKTOP" stroke="none" stroke-width="1" fill="none" fill-rule="evenodd">
        <g id="SITE-d-Copy" transform="translate(-1142.000000, -739.000000)" fill="#666666">
            <g id="BARRA-FIXA" transform="translate(0.000000, 721.000000)">
                <g id="Group-8" transform="translate(275.000000, 18.000000)">
                    <g id="Group-10">
                        <g id="Group-9">
                            <g id="Fill-2" transform="translate(866.999953, 0.000022)">
                                <g id="logo-ig" transform="translate(0.000000, -0.000022)">
                                    <path d="M19.8456563,5.59436545 C19.8456563,6.3896467 19.2009375,7.03436545 18.4056562,7.03436545 C17.610375,7.03436545 16.9655625,6.3896467 16.9655625,5.59436545 C16.9655625,4.7990842 17.610375,4.15436545 18.4056562,4.15436545 C19.2009375,4.15436545 19.8456563,4.7990842 19.8456563,5.59436545 M12,16.0000529 C9.790875,16.0000529 7.99996875,14.2091467 7.99996875,12.0000217 C7.99996875,9.7908967 9.790875,7.99999045 12,7.99999045 C14.209125,7.99999045 16.0000312,9.7908967 16.0000312,12.0000217 C16.0000312,14.2091467 14.209125,16.0000529 12,16.0000529 M12,5.8378342 C8.59678125,5.8378342 5.8378125,8.5967092 5.8378125,12.0000217 C5.8378125,15.4032404 8.59678125,18.1622092 12,18.1622092 C15.4032188,18.1622092 18.1621875,15.4032404 18.1621875,12.0000217 C18.1621875,8.5967092 15.4032188,5.8378342 12,5.8378342 M12,2.16981971e-05 C8.74096875,2.16981971e-05 8.33240625,0.0138029482 7.0524375,0.0722091982 C5.7751875,0.130521698 4.90284375,0.333302948 4.13953125,0.630021698 C3.3504375,0.936677948 2.68125,1.3470217 2.014125,2.0141467 C1.347,2.68117795 0.93665625,3.35036545 0.63,4.13955295 C0.333375,4.90286545 0.1305,5.77511545 0.0721875,7.0524592 C0.01378125,8.3323342 0,8.74099045 0,12.0000217 C0,15.2590529 0.01378125,15.6677092 0.0721875,16.9475842 C0.1305,18.2248342 0.333375,19.0971779 0.63,19.8604904 C0.93665625,20.6494904 1.347,21.3187717 2.014125,21.9858967 C2.68125,22.6530217 3.3504375,23.0633654 4.13953125,23.3700217 C4.90284375,23.6667404 5.7751875,23.8695217 7.0524375,23.9278342 C8.33240625,23.9862404 8.74096875,24.0000217 12,24.0000217 C15.2590312,24.0000217 15.6677813,23.9862404 16.9475625,23.9278342 C18.2249063,23.8695217 19.0971563,23.6667404 19.8604687,23.3700217 C20.6495625,23.0633654 21.3188437,22.6530217 21.9859688,21.9858967 C22.653,21.3187717 23.0633438,20.6495842 23.3700938,19.8604904 C23.6667188,19.0971779 23.8695,18.2248342 23.9278125,16.9475842 C23.9862187,15.6677092 24,15.2590529 24,12.0000217 C24,8.74099045 23.9862187,8.3323342 23.9278125,7.0524592 C23.8695,5.77511545 23.6667188,4.90286545 23.3700938,4.13955295 C23.0633438,3.35036545 22.653,2.68117795 21.9859688,2.0141467 C21.3188437,1.3470217 20.6495625,0.936677948 19.8604687,0.630021698 C19.0971563,0.333302948 18.2249063,0.130521698 16.9475625,0.0722091982 C15.6677813,0.0138029482 15.2590312,2.16981971e-05 12,2.16981971e-05 M12,2.16217795 C15.2041875,2.16217795 15.5836875,2.17436545 16.8490313,2.23211545 C18.0190313,2.28555295 18.654375,2.4810217 19.077375,2.6452717 C19.6373437,2.8629592 20.0371875,3.12311545 20.457,3.54292795 C20.877,3.9628342 21.1369688,4.36267795 21.35475,4.92274045 C21.5190937,5.3456467 21.7145625,5.9810842 21.7679062,7.15099045 C21.8256563,8.4163342 21.8378438,8.7958342 21.8378438,12.0000217 C21.8378438,15.2041154 21.8256563,15.5836154 21.7679062,16.8489592 C21.7145625,18.0190529 21.5190937,18.6543967 21.35475,19.0773029 C21.1369688,19.6373654 20.877,20.0371154 20.457,20.4571154 C20.0371875,20.8769279 19.6373437,21.1370842 19.077375,21.3546779 C18.654375,21.5190217 18.0190313,21.7144904 16.8490313,21.7679279 C15.583875,21.8255842 15.204375,21.8377717 12,21.8377717 C8.79571875,21.8377717 8.416125,21.8255842 7.15096875,21.7679279 C5.9810625,21.7144904 5.345625,21.5190217 4.9228125,21.3546779 C4.36265625,21.1370842 3.9628125,20.8769279 3.54290625,20.4571154 C3.12309375,20.0371154 2.86303125,19.6373654 2.64534375,19.0773029 C2.481,18.6543967 2.28553125,18.0190529 2.2321875,16.8490529 C2.17434375,15.5836154 2.16215625,15.2041154 2.16215625,12.0000217 C2.16215625,8.7958342 2.17434375,8.4163342 2.2321875,7.15099045 C2.28553125,5.9810842 2.481,5.3456467 2.64534375,4.92274045 C2.86303125,4.36267795 3.12309375,3.9628342 3.54290625,3.54292795 C3.9628125,3.12311545 4.36265625,2.8629592 4.9228125,2.6452717 C5.345625,2.4810217 5.9810625,2.28555295 7.15096875,2.23211545 C8.4163125,2.17436545 8.79590625,2.16217795 12,2.16217795"></path>
                                </g>
                            </g>
                        </g>
                    </g>
                </g>
            </g>
        </g>
    </g>
</svg>