<?xml version="1.0" encoding="UTF-8"?>
<svg width="120px" height="24px" viewBox="0 0 120 24" version="1.1" xmlns="http://www.w3.org/2000/svg" xmlns:xlink="http://www.w3.org/1999/xlink">
    <!-- Generator: sketchtool 58 (101010) - https://sketch.com -->
    <title>5090704C-B1CB-4622-A12B-960FC9786288</title>
    <desc>Created with sketchtool.</desc>
    <defs>
        <polygon id="path-1" points="0.307145299 0.241367521 16.3707692 0.241367521 16.3707692 23.9315897 0.307145299 23.9315897"></polygon>
        <polygon id="path-3" points="0.270280247 0.00348717949 12.0505983 0.00348717949 12.0505983 17.5423442 0.270280247 17.5423442"></polygon>
    </defs>
    <g id="DESKTOP" stroke="none" stroke-width="1" fill="none" fill-rule="evenodd">
        <g id="SITE-d-Copy" transform="translate(-275.000000, -740.000000)">
            <g id="BARRA-FIXA" transform="translate(0.000000, 721.000000)">
                <g id="Group-8" transform="translate(275.000000, 18.000000)">
                    <g id="Group-10">
                        <g id="Group-9">
                            <g id="Group-20" transform="translate(0.000000, 1.000000)">
                                <g id="logo-horizontal">
                                    <path d="M14.8787692,11.3095043 C14.6086838,11.2083077 14.6086838,11.2083077 14.5748376,11.444547 C14.6425299,11.4107009 14.7433846,11.3433504 14.8787692,11.3095043 L14.8787692,11.3095043 Z M14.4062906,11.9843761 C14.4401368,12.1194188 14.4401368,12.1867692 14.5074872,12.2544615 C14.6760342,12.153265 14.6760342,12.153265 14.4062906,11.9843761 L14.4062906,11.9843761 Z M11.7399658,10.6007863 C11.605265,10.4657436 11.5379145,10.3983932 11.4028718,10.3310427 C11.4702222,10.5334359 11.4702222,10.5334359 11.7399658,10.6007863 L11.7399658,10.6007863 Z M10.9977436,10.8370256 C10.8968889,10.7696752 10.8627009,10.7358291 10.7615043,10.6346325 C10.7953504,10.8708718 10.7953504,10.8708718 10.9977436,10.8370256 L10.9977436,10.8370256 Z M10.8627009,11.6469402 C10.7953504,11.6469402 10.4240684,12.1194188 10.4575726,12.2206154 C10.6941538,12.0859145 10.8288547,11.9170256 10.8627009,11.6469402 L10.8627009,11.6469402 Z M8.09552137,12.9970256 C7.79193162,12.8954872 7.65688889,12.9631795 7.62304274,13.2667692 C7.79193162,13.1320684 7.92697436,13.0978803 8.09552137,12.9970256 L8.09552137,12.9970256 Z M6.61073504,3.10916239 C7.0497094,3.31155556 7.0497094,3.31155556 7.21825641,3.14266667 C7.0497094,3.14266667 6.88047863,3.14266667 6.61073504,3.10916239 L6.61073504,3.10916239 Z M7.11705983,2.5351453 C6.71193162,2.63668376 6.54304274,2.63668376 6.57723077,2.4342906 C6.94817094,2.29924786 7.11705983,2.29924786 7.11705983,2.53548718 L7.11705983,2.5351453 Z M5.96936752,12.4230085 C5.96936752,12.321812 5.96936752,12.1867692 6.03705983,12.0520684 C5.76731624,12.1867692 5.83466667,12.2883077 5.96936752,12.4230085 L5.96936752,12.4230085 Z M6.10441026,18.8688205 C6.0705641,18.6325812 5.93586325,18.6325812 5.73347009,18.8688205 L6.10441026,18.8688205 Z M6.13825641,18.0927521 C6.13825641,17.890359 5.76731624,18.0250598 5.73347009,18.1939487 C5.93586325,18.2951453 6.0705641,18.2612991 6.13825641,18.0927521 L6.13825641,18.0927521 Z M5.66577778,2.46779487 C5.63193162,2.29924786 5.76731624,2.26540171 6.10441026,2.33309402 C6.23945299,2.5351453 6.03705983,2.63668376 5.66577778,2.46779487 L5.66577778,2.46779487 Z M11.0989402,9.14984615 C11.605265,9.18335043 11.5714188,8.94711111 11.4028718,8.57582906 C11.808,8.74471795 11.1666325,7.96864957 11.4367179,7.63121368 C10.7276581,7.39497436 10.5929573,7.22608547 10.0189402,6.88864957 C9.78304274,7.63121368 10.1878291,8.37377778 9.81654701,9.21719658 C9.37791453,10.1621538 8.50064957,10.7358291 7.58953846,11.2083077 C7.0497094,11.5118974 6.44184615,11.5457436 6.10441026,12.0520684 C5.93586325,12.3556581 6.3071453,13.7054017 5.63193162,13.5707009 C5.83466667,14.1105299 6.94817094,13.3344615 6.91432479,13.3679658 C6.98167521,13.4691624 6.94817094,13.6718974 7.08321368,13.6718974 C6.77962393,13.6380513 8.33210256,12.524547 8.12936752,12.6592479 C7.58953846,12.4568547 8.12936752,12.321812 8.43295726,12.6257436 L8.568,13.0643761 C8.36560684,13.0643761 6.74577778,14.0431795 6.27329915,14.1443761 C6.50953846,14.1443761 6.67842735,14.0431795 6.17210256,14.4479658 C7.28560684,14.7854017 9.88423932,12.0520684 10.2216752,12.2883077 C10.2216752,11.8158291 10.5256068,11.6469402 10.6603077,11.2083077 C9.95158974,11.7481368 8.29791453,13.6380513 8.50064957,12.0520684 C8.60184615,12.2544615 8.77073504,12.321812 9.00663248,12.3895043 C8.73654701,12.2544615 8.70304274,12.0520684 8.93928205,11.8831795 C9.00663248,12.0859145 9.17517949,12.1194188 9.37791453,12.0520684 C9.24321368,10.7696752 11.2339829,10.2633504 11.0989402,9.14984615 L11.0989402,9.14984615 Z M5.63193162,11.6807863 C7.28560684,10.9720684 10.0531282,10.2295043 9.81654701,7.83360684 C9.61449573,5.67394872 7.42064957,5.94369231 5.83466667,6.24762393 C6.13825641,7.05719658 6.34064957,8.47463248 5.59808547,9.01480342 C5.90201709,9.25104274 5.69928205,10.0609573 5.36218803,9.82471795 C5.53073504,10.8035214 5.63193162,10.7696752 5.63193162,11.6807863 L5.63193162,11.6807863 Z M4.72082051,2.5351453 C4.61962393,2.16420513 5.05825641,2.26540171 5.2271453,2.50164103 C5.05825641,2.50164103 4.85620513,2.50164103 4.72082051,2.5351453 L4.72082051,2.5351453 Z M3.53962393,2.63668376 C3.74235897,2.23155556 4.21483761,2.4342906 4.51842735,2.46779487 C4.34953846,2.56933333 3.70851282,2.56933333 3.53962393,2.63668376 L3.53962393,2.63668376 Z M2.96594872,2.60283761 C3.20252991,2.29924786 3.3037265,2.53548718 3.53962393,2.56933333 C3.37107692,2.73788034 3.43842735,2.83907692 3.77586325,2.83907692 C3.4045812,2.97411966 3.13483761,2.87292308 2.96594872,2.60283761 L2.96594872,2.60283761 Z M2.59466667,22.0411282 C2.62851282,22.2435214 2.62851282,22.4459145 2.66235897,22.5809573 C2.49347009,22.3447179 2.49347009,22.3447179 2.59466667,22.0411282 L2.59466667,22.0411282 Z M3.16868376,2.97411966 C2.86475214,3.64899145 2.2914188,3.10916239 2.45996581,2.5351453 C2.79740171,2.63668376 2.69620513,3.17651282 3.16868376,2.97411966 Z M1.98748718,14.5830085 L1.98748718,14.481812 L1.98748718,14.5830085 Z M1.98748718,14.5830085 C1.98748718,14.6842051 1.98748718,14.7515556 2.02133333,14.853094 C1.98748718,14.853094 1.95364103,14.7515556 1.98748718,14.5830085 L1.98748718,14.5830085 Z M1.95364103,18.1601026 C2.02133333,18.227453 2.12218803,18.6664274 1.95364103,18.5313846 L1.95364103,18.1601026 Z M1.8862906,17.1477949 C1.85244444,16.8777094 1.81859829,16.6079658 1.85244444,16.4052308 C2.02133333,16.6079658 2.08868376,16.8438632 1.8862906,17.1477949 L1.8862906,17.1477949 Z M2.49347009,9.99326496 C2.42611966,9.48728205 2.22338462,7.09138462 2.02133333,7.73241026 C1.8862906,7.36112821 1.98748718,7.05719658 1.78475214,6.68625641 C2.39261538,7.02369231 2.02133333,6.34882051 1.85244444,4.62779487 C-0.17217094,5.64010256 0.570051282,7.90095726 0.671247863,9.89206838 C0.671247863,10.7358291 0.806290598,14.1105299 2.35876923,12.0182222 C2.56116239,11.7146325 2.49347009,10.0609573 2.49347009,9.99326496 L2.49347009,9.99326496 Z M15.2158632,10.6684786 C16.0257778,12.4230085 13.1238974,15.021641 12.0100513,15.8315556 C10.6941538,16.7088205 9.10782906,17.1812991 7.62304274,17.5864274 C7.0497094,17.7553162 6.71193162,17.6876239 6.40834188,17.9238632 C6.50953846,18.3624957 6.40834188,18.6664274 6.10441026,18.9023248 L6.10441026,18.8688205 C5.80082051,18.9023248 5.66577778,19.0373675 5.73347009,19.3412991 C6.00321368,19.3748034 6.17210256,19.2736068 6.3071453,19.0373675 C6.23945299,21.1973675 6.34064957,19.1050598 5.66577778,19.6113846 L5.66577778,20.0838632 C5.96936752,19.5775385 6.77962393,22.9183932 5.59808547,21.8383932 C5.36218803,22.1758291 4.72082051,22.9522393 5.42953846,22.6148034 C4.82201709,23.7956581 3.84355556,23.3235214 3.10099145,22.7495043 C3.60731624,22.4124103 2.69620513,21.5686496 2.42611966,20.7248889 C2.18988034,19.9149744 2.35876923,17.890359 1.92013675,17.7214701 C1.8862906,17.2828376 2.79740171,15.021641 2.08868376,14.2794188 C2.02133333,14.3467692 2.02133333,14.4144615 1.98748718,14.481812 C2.05483761,13.941641 2.32492308,12.9970256 2.35876923,12.7942906 C2.08868376,12.8281368 1.81859829,12.8281368 1.58235897,12.7942906 C0.738940171,12.4907009 0.435008547,12.7942906 0.705094017,13.6380513 C0.401162393,14.4479658 0.63774359,15.8654017 0.603897436,16.7765128 C0.468854701,19.0373675 0.468854701,21.3324103 0.232615385,23.5936068 C-0.273367521,22.0072821 0.199111111,19.7125812 0.232615385,18.0927521 C0.333811966,15.8654017 0.435008547,13.5707009 0.435008547,11.3433504 C0.401162393,9.79087179 -0.206017094,7.1925812 0.333811966,5.70745299 C0.502358974,5.20147009 0.975179487,4.99907692 1.24492308,4.56010256 C1.48116239,4.42505983 1.68355556,4.32386325 1.92013675,4.22266667 C1.71740171,3.64899145 1.85244444,3.31155556 2.2914188,3.21035897 C2.32492308,3.37890598 2.32492308,3.51394872 2.22338462,3.68283761 C2.45996581,3.58164103 2.66235897,3.68283761 2.89859829,3.88523077 C3.10099145,2.29924786 6.20594872,2.40044444 8.29791453,2.83907692 C8.06201709,2.7717265 7.8254359,2.73788034 7.58953846,2.67018803 C7.52184615,2.26540171 8.2305641,2.73788034 8.36560684,2.83907692 C9.07398291,3.00796581 9.68184615,3.17651282 9.9854359,3.34540171 C11.4028718,4.08762393 12.7526154,5.16762393 13.6302222,6.34882051 C14.0350085,6.8551453 15.4185983,9.72352137 14.6760342,9.14984615 C14.6425299,9.4534359 14.5748376,9.72352137 14.5413333,10.0271111 C14.8787692,9.95976068 15.9584274,10.0948034 15.1485128,10.6684786 C14.8114188,10.4657436 14.473641,10.196 14.6425299,10.9043761 C14.8114188,10.7696752 14.9799658,10.7019829 15.2158632,10.6684786 L15.2158632,10.6684786 Z" id="Fill-1" fill="#B72B49"></path>
                                    <g id="Group-5" transform="translate(15.384615, 0.100479)">
                                        <mask id="mask-2" fill="white">
                                            <use xlink:href="#path-1"></use>
                                        </mask>
                                        <g id="Clip-4"></g>
                                        <path d="M12.1861197,10.9391111 C12.0172308,11.0741538 12.050735,11.2091966 12.1184274,11.3777436 C12.1519316,11.2427009 12.1519316,11.0741538 12.1861197,10.9391111 L12.1861197,10.9391111 Z M12.1519316,9.58936752 C12.0172308,9.72406838 12.050735,9.89295726 12.1519316,10.0618462 C12.050735,9.89295726 12.3885128,9.75791453 12.1519316,9.58936752 L12.1519316,9.58936752 Z M12.1184274,3.88611966 C11.882188,3.91962393 12.1519316,6.41705983 12.1861197,6.78834188 C12.3211624,6.14697436 12.590906,4.45979487 12.1184274,3.88611966 L12.1184274,3.88611966 Z M11.9833846,3.78492308 C12.2873162,3.71723077 12.1184274,3.27859829 11.9833846,3.07620513 L11.9833846,3.78492308 Z M11.882188,16.6758632 C11.8148376,16.8785983 11.8486838,17.0471453 11.9498803,17.2160342 C11.8148376,17.3510769 11.8148376,17.5534701 11.882188,17.7897094 C12.0172308,17.6208205 11.9833846,16.7774017 11.882188,16.6758632 L11.882188,16.6758632 Z M11.9498803,15.7312479 C11.882188,15.8662906 11.8486838,16.0009915 11.7474872,16.0686838 C11.9498803,16.1698803 12.0172308,15.933641 11.9498803,15.7312479 L11.9498803,15.7312479 Z M11.7132991,0.646461538 C12.050735,0.679965812 12.1184274,0.713811966 12.1184274,1.11859829 C11.7132991,1.15278632 11.6797949,1.08509402 11.7132991,0.646461538 L11.7132991,0.646461538 Z M8.97996581,16.5073162 C8.74406838,16.7774017 7.79876923,17.3172308 8.44013675,17.6546667 C8.17005128,17.7897094 8.10270085,17.9247521 8.30509402,18.2283419 C9.21620513,17.6546667 9.18270085,17.6546667 8.97996581,16.5073162 L8.97996581,16.5073162 Z M8.0688547,0.275179487 C8.20389744,0.275179487 8.30509402,0.275179487 8.44013675,0.342529915 C8.44013675,0.545264957 8.10270085,0.443726496 8.0688547,0.275179487 L8.0688547,0.275179487 Z M8.64252991,5.67449573 C7.90030769,6.82218803 7.36013675,13.6727863 8.91261538,13.7401368 C8.91261538,11.1753504 9.18270085,8.23928205 8.64252991,5.67483761 L8.64252991,5.67449573 Z M7.29278632,9.01569231 C7.49517949,9.21808547 7.7314188,8.77945299 7.7314188,8.6105641 C7.59637607,8.74560684 7.46167521,8.88064957 7.29278632,9.01569231 L7.29278632,9.01569231 Z M6.55022222,2.13124786 C6.61791453,2.16475214 6.65176068,2.19859829 6.68526496,2.19859829 C6.61791453,2.2662906 6.58406838,2.23244444 6.55022222,2.13124786 L6.55022222,2.13124786 Z M6.55022222,1.82765812 L6.55022222,2.13124786 C6.38133333,2.03005128 6.17928205,1.82765812 6.55022222,1.82765812 L6.55022222,1.82765812 Z M5.87535043,15.2587692 C6.11124786,15.0560342 6.34782906,15.0225299 6.61791453,15.0225299 C7.02270085,14.4488547 7.49517949,14.7185983 7.7314188,14.1449231 C7.93381197,13.7401368 7.7314188,12.9637265 7.7314188,12.525094 C7.7314188,11.7828718 7.90030769,10.2980855 7.59637607,9.62287179 C7.19158974,9.01569231 7.02270085,9.89295726 6.75261538,10.7367179 C6.58406838,11.1753504 5.40287179,15.0560342 5.87535043,15.2587692 L5.87535043,15.2587692 Z M6.41517949,2.56988034 C6.11124786,2.46868376 5.67261538,2.97500855 5.53791453,2.7722735 C5.16663248,2.19859829 6.44902564,2.43483761 5.97654701,2.09740171 C6.34782906,1.99620513 6.34782906,2.40099145 6.41517949,2.56988034 L6.41517949,2.56988034 Z M7.86646154,17.3172308 C6.61791453,18.0597949 5.30167521,18.3968889 5.36936752,19.9832137 C6.75261538,19.139453 8.00150427,19.0044103 7.86646154,17.3172308 L7.86646154,17.3172308 Z M5.30167521,3.31244444 C5.30167521,3.3462906 5.33552137,3.37979487 5.36936752,3.41364103 C5.33552137,3.37979487 5.30167521,3.3462906 5.30167521,3.31244444 L5.30167521,3.31244444 Z M5.36936752,13.9425299 C5.40287179,13.8074872 5.40287179,13.6727863 5.43671795,13.5038974 C5.26817094,13.7401368 5.26817094,13.7401368 5.36936752,13.9425299 L5.36936752,13.9425299 Z M5.30167521,3.31244444 C5.13278632,3.00851282 5.20013675,2.90731624 5.53791453,3.04235897 C5.36936752,3.11005128 5.26817094,3.21124786 5.30167521,3.31244444 L5.30167521,3.31244444 Z M5.03158974,20.5230427 C4.93039316,20.9616752 4.96423932,21.299453 5.23398291,21.468 C5.26817094,21.1644103 5.23398291,20.8608205 5.03158974,20.5230427 L5.03158974,20.5230427 Z M5.03158974,20.2532991 C5.26817094,19.8481709 5.09894017,19.5445812 4.99808547,19.2406496 C4.86304274,19.510735 4.86304274,19.7469744 5.03158974,20.2532991 L5.03158974,20.2532991 Z M5.53791453,3.91962393 C3.68184615,4.76338462 2.66919658,9.11654701 2.29825641,10.905265 C2.06201709,11.8502222 0.982358974,16.3384274 1.75808547,16.8785983 C2.2305641,17.2160342 2.97312821,11.0741538 3.07432479,10.6016752 C3.61449573,8.23928205 4.52560684,6.11347009 5.53791453,3.91962393 L5.53791453,3.91962393 Z M12.4558632,15.7985983 C12.6921026,15.6300513 14.4469744,14.4150085 14.6155214,14.6174017 C13.6035556,15.5962051 12.7597949,15.6300513 12.3885128,16.9459487 C11.9498803,18.262188 12.3885128,19.8143248 11.9833846,21.1305641 C11.882188,20.2868034 12.050735,19.3756923 11.882188,18.5319316 C11.2408205,19.3083419 12.7259487,24.1678291 10.1950085,23.1893675 C9.04731624,22.716547 9.08116239,18.8697094 9.18270085,18.0597949 C8.70988034,18.3633846 8.50748718,18.5319316 8.4062906,18.7681709 C8.50748718,18.7346667 8.54133333,18.8020171 8.60868376,18.9370598 C8.50748718,18.9370598 8.4062906,18.970906 8.37278632,18.8697094 C8.30509402,19.0721026 8.27124786,19.3083419 8.23740171,19.7134701 C8.20389744,19.8820171 8.37278632,21.5018462 8.03500855,21.4341538 C8.03500855,20.5568889 8.00150427,19.6792821 7.93381197,18.8020171 C7.29278632,18.9370598 5.808,19.7469744 5.43671795,20.2868034 C5.16663248,20.8608205 5.47022222,23.5941538 4.728,22.6491966 C4.728,23.830735 4.55911111,22.6491966 4.15432479,22.7842393 C4.25552137,23.6615043 3.24321368,22.7842393 2.97312821,22.5141538 C2.66919658,22.1767179 2.73688889,21.3329573 2.39945299,20.8943248 C2.43329915,20.8608205 2.8045812,18.7008205 1.45449573,20.3883419 C1.08321368,20.8608205 1.79193162,23.3579145 1.92697436,23.9315897 C1.18441026,23.7291966 1.18441026,20.0170598 1.18441026,19.5445812 C1.01586325,19.5784274 0.779623932,19.6457778 0.611076923,19.6457778 C0.307145299,18.8697094 1.42099145,19.6792821 0.307145299,18.8358632 C0.475692308,18.8358632 0.611076923,18.8697094 0.779623932,18.8697094 C0.441846154,18.6334701 1.0497094,17.4857778 1.18441026,16.7774017 C1.45449573,15.562359 1.35295726,14.1787692 1.48834188,12.9302222 C1.65688889,11.4789402 1.89347009,10.2980855 2.33210256,8.98184615 C2.53449573,8.13808547 2.9054359,7.26082051 3.34441026,6.38321368 C3.61449573,5.9445812 4.49176068,4.72953846 4.15432479,4.5271453 C4.32287179,4.45979487 4.62680342,4.08851282 5.03158974,3.71723077 C4.93039316,3.68338462 4.86304274,3.58218803 4.86304274,3.3462906 C5.09894017,3.41364103 5.23398291,3.4471453 5.30167521,3.4471453 C5.30167521,3.48099145 5.30167521,3.48099145 5.26782906,3.48099145 C5.67261538,3.17740171 6.1454359,2.90731624 6.58406838,2.97500855 C6.58406838,2.7722735 6.48252991,2.63723077 6.41517949,2.56988034 C6.61791453,2.63723077 6.71911111,2.56988034 6.68526496,2.19859829 C7.7314188,1.38868376 6.88765812,1.99620513 6.55022222,1.82765812 C6.55022222,1.5237265 6.71911111,1.22013675 7.19158974,1.32133333 C7.22509402,0.848854701 7.19158974,1.28748718 7.59637607,0.815008547 C7.63022222,1.01740171 7.7314188,1.01740171 8.00150427,1.01740171 C8.0688547,0.815008547 8.03500855,0.679965812 7.79876923,0.578769231 C8.23740171,0.578769231 8.74406838,0.950051282 8.8114188,0.241333333 C9.4862906,0.679965812 10.7009915,0.275179487 11.1061197,0.983897436 C11.1396239,0.781504274 11.2408205,0.679965812 11.3762051,0.545264957 C11.5447521,1.11859829 11.4435556,1.42252991 11.9498803,1.86116239 C12.3211624,0.410222222 13.2657778,4.35825641 13.2657778,4.83107692 C13.4343248,7.26082051 12.6247521,9.72406838 12.8609915,12.0864615 C13.6370598,11.8502222 15.0206496,10.8040684 15.9317607,11.2091966 C16.6404786,11.4789402 15.5604786,11.985265 16.3703932,11.9175726 C16.4042393,12.6939829 14.1433846,13.4362051 13.6035556,13.8413333 C12.6247521,14.482359 12.5570598,14.6174017 12.4558632,15.7985983 L12.4558632,15.7985983 Z" id="Fill-3" fill="#B72B49" mask="url(#mask-2)"></path>
                                    </g>
                                    <path d="M45.2734017,11.3095043 C45.0033162,11.2083077 45.0033162,11.2083077 44.9694701,11.444547 C45.0371624,11.4107009 45.1380171,11.3433504 45.2734017,11.3095043 L45.2734017,11.3095043 Z M44.8009231,11.9843761 C44.8347692,12.1194188 44.8347692,12.1867692 44.9021197,12.2544615 C45.0706667,12.153265 45.0706667,12.153265 44.8009231,11.9843761 L44.8009231,11.9843761 Z M42.1345983,10.6007863 C41.9998974,10.4657436 41.932547,10.3983932 41.7975043,10.3310427 C41.8648547,10.5334359 41.8648547,10.5334359 42.1345983,10.6007863 L42.1345983,10.6007863 Z M41.3923761,10.8370256 C41.2915214,10.7696752 41.2573333,10.7358291 41.1561368,10.6346325 C41.1899829,10.8708718 41.1899829,10.8708718 41.3923761,10.8370256 L41.3923761,10.8370256 Z M41.2573333,11.6469402 C41.1899829,11.6469402 40.8187009,12.1194188 40.8522051,12.2206154 C41.0887863,12.0859145 41.2234872,11.9170256 41.2573333,11.6469402 L41.2573333,11.6469402 Z M38.4901538,12.9970256 C38.1865641,12.8954872 38.0515214,12.9631795 38.0176752,13.2667692 C38.1865641,13.1320684 38.3216068,13.0978803 38.4901538,12.9970256 L38.4901538,12.9970256 Z M37.0053675,3.10916239 C37.4443419,3.31155556 37.4443419,3.31155556 37.6128889,3.14266667 C37.4443419,3.14266667 37.2751111,3.14266667 37.0053675,3.10916239 L37.0053675,3.10916239 Z M37.5116923,2.5351453 C37.1065641,2.63668376 36.9376752,2.63668376 36.9718632,2.4342906 C37.3428034,2.29924786 37.5116923,2.29924786 37.5116923,2.53548718 L37.5116923,2.5351453 Z M36.364,12.4230085 C36.364,12.321812 36.364,12.1867692 36.4316923,12.0520684 C36.1619487,12.1867692 36.2292991,12.2883077 36.364,12.4230085 L36.364,12.4230085 Z M36.4990427,18.8688205 C36.4651966,18.6325812 36.3304957,18.6325812 36.1281026,18.8688205 L36.4990427,18.8688205 Z M36.5328889,18.0927521 C36.5328889,17.890359 36.1619487,18.0250598 36.1281026,18.1939487 C36.3304957,18.2951453 36.4651966,18.2612991 36.5328889,18.0927521 L36.5328889,18.0927521 Z M36.0604103,2.46779487 C36.0265641,2.29924786 36.1619487,2.26540171 36.4990427,2.33309402 C36.6340855,2.5351453 36.4316923,2.63668376 36.0604103,2.46779487 L36.0604103,2.46779487 Z M41.4935726,9.14984615 C41.9998974,9.18335043 41.9660513,8.94711111 41.7975043,8.57582906 C42.2026325,8.74471795 41.561265,7.96864957 41.8313504,7.63121368 C41.1222906,7.39497436 40.9875897,7.22608547 40.4135726,6.88864957 C40.1776752,7.63121368 40.5824615,8.37377778 40.2111795,9.21719658 C39.772547,10.1621538 38.8952821,10.7358291 37.9841709,11.2083077 C37.4443419,11.5118974 36.8364786,11.5457436 36.4990427,12.0520684 C36.3304957,12.3556581 36.7017778,13.7054017 36.0265641,13.5707009 C36.2292991,14.1105299 37.3428034,13.3344615 37.3089573,13.3679658 C37.3763077,13.4691624 37.3428034,13.6718974 37.4778462,13.6718974 C37.1742564,13.6380513 38.726735,12.524547 38.524,12.6592479 C37.9841709,12.4568547 38.524,12.321812 38.8275897,12.6257436 L38.9626325,13.0643761 C38.7602393,13.0643761 37.1404103,14.0431795 36.6679316,14.1443761 C36.9041709,14.1443761 37.0730598,14.0431795 36.566735,14.4479658 C37.6802393,14.7854017 40.2788718,12.0520684 40.6163077,12.2883077 C40.6163077,11.8158291 40.9202393,11.6469402 41.0549402,11.2083077 C40.3462222,11.7481368 38.692547,13.6380513 38.8952821,12.0520684 C38.9964786,12.2544615 39.1653675,12.321812 39.401265,12.3895043 C39.1311795,12.2544615 39.0976752,12.0520684 39.3339145,11.8831795 C39.401265,12.0859145 39.569812,12.1194188 39.772547,12.0520684 C39.6378462,10.7696752 41.6286154,10.2633504 41.4935726,9.14984615 L41.4935726,9.14984615 Z M36.0265641,11.6807863 C37.6802393,10.9720684 40.4477607,10.2295043 40.2111795,7.83360684 C40.0091282,5.67394872 37.8152821,5.94369231 36.2292991,6.24762393 C36.5328889,7.05719658 36.7352821,8.47463248 35.9930598,9.01480342 C36.2966496,9.25104274 36.0939145,10.0609573 35.7568205,9.82471795 C35.9253675,10.8035214 36.0265641,10.7696752 36.0265641,11.6807863 L36.0265641,11.6807863 Z M35.115453,2.5351453 C35.0142564,2.16420513 35.4528889,2.26540171 35.6217778,2.50164103 C35.4528889,2.50164103 35.2508376,2.50164103 35.115453,2.5351453 L35.115453,2.5351453 Z M33.9342564,2.63668376 C34.1369915,2.23155556 34.6094701,2.4342906 34.9130598,2.46779487 C34.7441709,2.56933333 34.1031453,2.56933333 33.9342564,2.63668376 L33.9342564,2.63668376 Z M33.3605812,2.60283761 C33.5971624,2.29924786 33.698359,2.53548718 33.9342564,2.56933333 C33.7657094,2.73788034 33.8330598,2.83907692 34.1704957,2.83907692 C33.7992137,2.97411966 33.5294701,2.87292308 33.3605812,2.60283761 L33.3605812,2.60283761 Z M32.9892991,22.0411282 C33.0231453,22.2435214 33.0231453,22.4459145 33.0569915,22.5809573 C32.8881026,22.3447179 32.8881026,22.3447179 32.9892991,22.0411282 L32.9892991,22.0411282 Z M33.5633162,2.97411966 C33.2593846,3.64899145 32.6860513,3.10916239 32.8545983,2.5351453 C33.1920342,2.63668376 33.0908376,3.17651282 33.5633162,2.97411966 Z M32.3821197,14.5830085 L32.3821197,14.481812 L32.3821197,14.5830085 Z M32.3821197,14.5830085 C32.3821197,14.6842051 32.3821197,14.7515556 32.4159658,14.853094 C32.3821197,14.853094 32.3482735,14.7515556 32.3821197,14.5830085 L32.3821197,14.5830085 Z M32.3482735,18.1601026 C32.4159658,18.227453 32.5171624,18.6664274 32.3482735,18.5313846 L32.3482735,18.1601026 Z M32.2809231,17.1477949 C32.2470769,16.8777094 32.2132308,16.6079658 32.2470769,16.4052308 C32.4159658,16.6079658 32.4833162,16.8438632 32.2809231,17.1477949 L32.2809231,17.1477949 Z M32.8881026,9.99326496 C32.8207521,9.48728205 32.6180171,7.09138462 32.4159658,7.73241026 C32.2809231,7.36112821 32.3821197,7.05719658 32.1793846,6.68625641 C32.7872479,7.02369231 32.4159658,6.34882051 32.2470769,4.62779487 C30.2224615,5.64010256 30.9646838,7.90095726 31.0658803,9.89206838 C31.0658803,10.7358291 31.2009231,14.1105299 32.7534017,12.0182222 C32.9557949,11.7146325 32.8881026,10.0609573 32.8881026,9.99326496 L32.8881026,9.99326496 Z M45.6104957,10.6684786 C46.4204103,12.4230085 43.5185299,15.021641 42.4046838,15.8315556 C41.0887863,16.7088205 39.5024615,17.1812991 38.0176752,17.5864274 C37.4443419,17.7553162 37.1065641,17.6876239 36.8029744,17.9238632 C36.9041709,18.3624957 36.8029744,18.6664274 36.4990427,18.9023248 L36.4990427,18.8688205 C36.195453,18.9023248 36.0604103,19.0373675 36.1281026,19.3412991 C36.3978462,19.3748034 36.566735,19.2736068 36.7017778,19.0373675 C36.6340855,21.1973675 36.7352821,19.1050598 36.0604103,19.6113846 L36.0604103,20.0838632 C36.364,19.5775385 37.1742564,22.9183932 35.9930598,21.8383932 C35.7568205,22.1758291 35.115453,22.9522393 35.8241709,22.6148034 C35.2166496,23.7956581 34.238188,23.3235214 33.4956239,22.7495043 C34.0019487,22.4124103 33.0908376,21.5686496 32.8207521,20.7248889 C32.5845128,19.9149744 32.7534017,17.890359 32.3147692,17.7214701 C32.2809231,17.2828376 33.1920342,15.021641 32.4833162,14.2794188 C32.4159658,14.3467692 32.4159658,14.4144615 32.3821197,14.481812 C32.4494701,13.941641 32.7195556,12.9970256 32.7534017,12.7942906 C32.4833162,12.8281368 32.2132308,12.8281368 31.9769915,12.7942906 C31.1335726,12.4907009 30.829641,12.7942906 31.0997265,13.6380513 C30.7957949,14.4479658 31.0323761,15.8654017 30.9985299,16.7765128 C30.8634872,19.0373675 30.8634872,21.3324103 30.6272479,23.5936068 C30.121265,22.0072821 30.5937436,19.7125812 30.6272479,18.0927521 C30.7284444,15.8654017 30.829641,13.5707009 30.829641,11.3433504 C30.7957949,9.79087179 30.1886154,7.1925812 30.7284444,5.70745299 C30.8969915,5.20147009 31.369812,4.99907692 31.6395556,4.56010256 C31.8761368,4.42505983 32.078188,4.32386325 32.3147692,4.22266667 C32.1120342,3.64899145 32.2470769,3.31155556 32.6860513,3.21035897 C32.7195556,3.37890598 32.7195556,3.51394872 32.6180171,3.68283761 C32.8545983,3.58164103 33.0569915,3.68283761 33.2932308,3.88523077 C33.4956239,2.29924786 36.6005812,2.40044444 38.692547,2.83907692 C38.4566496,2.7717265 38.2200684,2.73788034 37.9841709,2.67018803 C37.9164786,2.26540171 38.6251966,2.73788034 38.7602393,2.83907692 C39.4686154,3.00796581 40.0764786,3.17651282 40.3800684,3.34540171 C41.7975043,4.08762393 43.1472479,5.16762393 44.0248547,6.34882051 C44.429641,6.8551453 45.8132308,9.72352137 45.0706667,9.14984615 C45.0371624,9.4534359 44.9694701,9.72352137 44.9359658,10.0271111 C45.2734017,9.95976068 46.3530598,10.0948034 45.5431453,10.6684786 C45.2060513,10.4657436 44.8682735,10.196 45.0371624,10.9043761 C45.2060513,10.7696752 45.3745983,10.7019829 45.6104957,10.6684786 L45.6104957,10.6684786 Z" id="Fill-6" fill="#B72B49"></path>
                                    <path d="M54.5816068,7.90105983 C54.5816068,8.06994872 54.615453,8.23849573 54.615453,8.40738462 C55.0875897,8.33969231 54.7169915,7.90105983 54.5816068,7.90105983 L54.5816068,7.90105983 Z M54.4804103,8.5085812 C54.6489573,8.67747009 54.7843419,9.11610256 54.7169915,9.28464957 C55.1556239,9.11610256 54.8516923,8.44123077 54.4804103,8.5085812 L54.4804103,8.5085812 Z M54.4465641,10.263453 C54.3457094,10.432 54.4130598,10.4658462 54.6489573,10.4658462 C54.7504957,10.3308034 54.7169915,10.263453 54.4465641,10.263453 L54.4465641,10.263453 Z M54.2780171,12.0179829 C54.2103248,12.2884103 54.1764786,12.5243077 54.1429744,12.7943932 C54.4130598,12.8282393 54.3118632,12.0856752 54.2780171,12.0179829 L54.2780171,12.0179829 Z M54.5816068,11.4781538 C54.4465641,11.3431111 54.2780171,11.3431111 54.1429744,11.512 C54.4804103,11.5793504 54.5142564,11.6470427 54.1764786,11.7820855 C54.4465641,11.9506325 54.5816068,11.8832821 54.5816068,11.4781538 L54.5816068,11.4781538 Z M54.0417778,13.5031111 C53.8732308,13.5366154 53.6366496,14.2791795 53.7716923,14.3803761 C53.906735,14.2791795 53.9744274,14.1441368 53.8393846,14.0429402 C54.3118632,13.840547 54.4130598,13.6716581 54.0417778,13.5031111 L54.0417778,13.5031111 Z M53.2653675,15.5280684 C53.2653675,15.5954188 53.2992137,15.7304615 53.2992137,15.8990085 C53.3330598,15.6627692 53.3330598,15.6627692 53.2653675,15.5280684 L53.2653675,15.5280684 Z M52.658188,3.71644444 C52.5908376,3.68294017 52.5231453,3.68294017 52.455453,3.68294017 C52.5231453,3.64909402 52.5908376,3.68294017 52.658188,3.71644444 L52.658188,3.71644444 Z M52.6920342,16.7762735 C52.2530598,16.6754188 52.1522051,16.7762735 52.4219487,17.1814017 L52.6920342,16.7762735 Z M52.2195556,3.81764103 C52.2530598,3.71644444 52.3542564,3.64909402 52.455453,3.68294017 C52.3542564,3.68294017 52.286906,3.71644444 52.2195556,3.81764103 L52.2195556,3.81764103 Z M52.3207521,17.3164444 C52.2195556,17.2825983 52.0845128,17.2825983 51.9494701,17.2825983 C52.0168205,17.4853333 52.2530598,17.4853333 52.3207521,17.3164444 L52.3207521,17.3164444 Z M51.4431453,3.95268376 C51.7132308,3.85148718 52.0168205,3.81764103 52.2195556,3.81764103 C51.9829744,3.98652991 51.7132308,4.02003419 51.4431453,3.95268376 L51.4431453,3.95268376 Z M51.2745983,20.7249915 C51.0718632,20.6572991 50.9371624,20.6911453 50.9033162,20.826188 C51.1395556,20.994735 51.2745983,20.994735 51.2745983,20.7249915 L51.2745983,20.7249915 Z M54.0079316,7.53011966 C52.6920342,6.95610256 50.6332308,12.7943932 50.4646838,13.469265 C50.0595556,14.920547 49.3846838,19.4087521 51.5443419,16.8439658 C52.0168205,16.2364444 52.455453,15.2579829 52.658188,14.7855043 C52.8940855,14.0767863 53.0968205,13.6716581 53.1641709,12.9632821 C53.2653675,12.3557607 52.118359,9.75712821 52.5231453,9.52088889 C52.9956239,10.1957607 53.1306667,11.0395214 53.4345983,11.8832821 C54.3457094,11.0060171 53.3330598,8.37353846 54.0079316,7.53011966 L54.0079316,7.53011966 Z M49.6209231,7.32738462 C49.5197265,7.02379487 49.5197265,7.02379487 49.1822906,7.0911453 C49.1484444,7.49593162 49.4520342,7.22618803 49.6209231,7.32738462 L49.6209231,7.32738462 Z M49.0134017,8.06994872 C48.9460513,7.96875214 48.9122051,7.90105983 48.878359,7.76601709 C48.709812,8.00225641 48.709812,8.00225641 49.0134017,8.06994872 L49.0134017,8.06994872 Z M48.7436581,8.33969231 C48.7436581,8.5085812 49.081094,8.40738462 49.1822906,8.33969231 L48.7436581,8.33969231 Z M48.7436581,9.14960684 C48.3050256,8.94721368 48.1357949,9.08225641 48.2038291,9.55473504 C48.5747692,9.68977778 48.7436581,9.55473504 48.7436581,9.14960684 L48.7436581,9.14960684 Z M48.3723761,10.2969573 C48.3050256,10.1957607 48.169641,10.1284103 48.0684444,10.0272137 C47.7648547,10.3984957 47.8998974,10.4658462 48.3723761,10.2969573 L48.3723761,10.2969573 Z M47.2923761,12.9294359 C47.5959658,12.7943932 47.7648547,11.7482393 48.1357949,11.2757607 C47.1573333,10.9721709 46.8198974,13.6716581 47.1911795,14.4819145 C47.4947692,14.0767863 47.2923761,13.3680684 47.2923761,12.9294359 L47.2923761,12.9294359 Z M52.0841709,21.0959316 C50.7682735,21.8046496 49.3508376,20.2186667 48.3385299,19.3075556 C47.1573333,18.1937094 46.9887863,17.4853333 46.6848547,16.6754188 C46.2462222,15.4265299 45.9422906,14.5154188 46.1788718,13.2330256 C46.381265,12.389265 47.3258803,10.0272137 46.9887863,9.28464957 C47.1911795,9.45353846 47.3939145,9.41969231 47.4947692,9.14960684 C47.1911795,8.94721368 48.878359,5.26892308 50.3631453,5.43747009 C50.2619487,5.30242735 50.1272479,5.30242735 50.0595556,5.43747009 C49.081094,5.43747009 50.0595556,5.43747009 49.9587009,5.06618803 C49.5197265,3.54789744 46.6175043,9.01490598 46.4486154,9.72362393 C45.8414359,12.0856752 45.4363077,14.7855043 45.7402393,17.2152479 C45.9761368,18.9701197 46.6175043,21.4337094 48.169641,22.5472137 C49.5874188,23.4921709 51.6797265,22.8511453 52.0841709,21.0959316 L52.0841709,21.0959316 Z M56.5392137,15.6966154 C56.2014359,17.046359 54.4130598,20.9612308 52.8605812,20.0836239 C52.7593846,21.9735385 50.2619487,23.8969573 48.4735726,22.9858462 C45.8414359,21.6696068 45.3689573,17.4853333 45.4024615,14.9540513 C45.5036581,12.2884103 46.0099829,9.2511453 47.2585299,6.88875214 C47.6971624,6.01148718 48.3385299,4.89764103 49.3846838,4.69524786 C50.0595556,4.56020513 51.0718632,5.13388034 50.6332308,4.72909402 C51.6797265,4.4928547 51.8482735,4.15507692 53.0294701,3.95268376 C53.0294701,3.7502906 52.9621197,3.68294017 52.7593846,3.58140171 C53.1306667,3.58140171 53.8393846,3.7502906 54.0417778,3.81764103 C54.7169915,3.98652991 56.2014359,4.18892308 56.6400684,4.69524786 C57.0451966,5.1677265 56.5053675,5.20157265 56.4038291,5.57251282 C56.5053675,5.26892308 55.9651966,7.46242735 55.9313504,6.82105983 C55.9313504,7.22618803 56.5053675,7.26003419 56.5392137,7.69866667 C56.9778462,10.3984957 57.2137436,13.0644786 56.5392137,15.6966154 L56.5392137,15.6966154 Z" id="Fill-8" fill="#B72B49"></path>
                                    <path d="M71.3561368,6.45757265 C71.4234872,6.80936752 71.4569915,7.16150427 71.4569915,7.51329915 C71.7602393,7.44936752 71.4569915,6.4897094 71.3561368,6.45757265 L71.3561368,6.45757265 Z M71.4234872,11.5437265 L71.4234872,11.0001368 C71.3899829,11.1597949 71.2214359,11.3519316 71.4234872,11.5437265 L71.4234872,11.5437265 Z M71.4908376,9.78441026 C71.1879316,9.78441026 71.3561368,10.4883419 71.4569915,10.5840684 C71.4908376,10.3283419 71.4908376,10.0722735 71.4908376,9.78441026 L71.4908376,9.78441026 Z M71.3561368,11.9915897 C71.2549402,12.8233846 71.1540855,13.4630427 71.3561368,13.750906 C71.3561368,13.1112479 71.4569915,12.5676581 71.3561368,11.9915897 L71.3561368,11.9915897 Z M71.1879316,13.910906 C71.1879316,14.0387692 71.1879316,14.1669744 71.2549402,14.2948376 C71.4234872,14.2948376 71.2887863,13.9430427 71.1879316,13.910906 L71.1879316,13.910906 Z M71.1879316,15.1905641 C71.3222906,14.8705641 71.2887863,14.8066325 71.0528889,15.062359 C71.1205812,15.0305641 71.1540855,15.6062906 71.1540855,15.6062906 C71.2549402,15.4784274 71.2887863,15.3505641 71.1879316,15.1905641 L71.1879316,15.1905641 Z M70.8508376,12.3755214 C70.6826325,12.439453 70.6156239,12.5676581 70.7164786,12.7273162 C70.8846838,12.6633846 70.9858803,12.5676581 70.8508376,12.3755214 L70.8508376,12.3755214 Z M70.8176752,15.6062906 C70.5482735,15.7341538 70.5482735,15.862359 70.7503248,16.022359 C70.7503248,15.8944957 70.8176752,15.7662906 70.8176752,15.6062906 L70.8176752,15.6062906 Z M70.6156239,18.1334701 C70.3462222,18.4213333 70.6826325,18.7091966 70.6826325,18.9331282 C70.7164786,18.7091966 70.8508376,18.4213333 70.6156239,18.1334701 L70.6156239,18.1334701 Z M70.5817778,19.3491966 C70.5144274,19.5088547 70.5144274,19.6370598 70.4805812,19.7649231 C70.6156239,19.7009915 70.6826325,19.5088547 70.5817778,19.3491966 L70.5817778,19.3491966 Z M70.4805812,19.7649231 C70.4474188,19.9888547 70.4805812,20.1806496 70.5482735,20.4045812 C70.7503248,20.1488547 70.7164786,19.9249231 70.4805812,19.7649231 L70.4805812,19.7649231 Z M68.8313504,11.2558632 C68.7978462,11.128 68.7978462,11.0001368 68.7978462,10.8401368 C68.6292991,11.0001368 68.6966496,11.128 68.8313504,11.2558632 L68.8313504,11.2558632 Z M68.7978462,8.92082051 C68.6631453,8.92082051 68.6292991,8.98475214 68.7301538,9.24082051 C68.8651966,9.24082051 68.8651966,9.17654701 68.7978462,8.92082051 L68.7978462,8.92082051 Z M68.7978462,8.12116239 L68.7978462,7.44936752 C68.6292991,7.80116239 68.6292991,7.80116239 68.7978462,8.12116239 L68.7978462,8.12116239 Z M68.2928889,19.1891966 C68.1243419,19.5088547 68.0573333,19.7009915 68.3598974,19.8609915 C68.5284444,19.6370598 68.2590427,19.4770598 68.2928889,19.1891966 L68.2928889,19.1891966 Z M68.2590427,16.2459487 C68.1243419,16.3102222 68.1243419,16.4380855 68.2590427,16.5659487 C68.2590427,16.4380855 68.3937436,15.9902222 68.1243419,15.8944957 C68.0573333,16.0541538 68.0908376,16.1820171 68.2590427,16.2459487 L68.2590427,16.2459487 Z M68.0908376,17.1098803 C68.2928889,16.9820171 68.2590427,16.853812 68.0908376,16.693812 L68.0908376,17.1098803 Z M68.0573333,9.9122735 L68.2928889,10.1362051 C68.2255385,10.0401368 68.1243419,9.94441026 68.0573333,9.9122735 L68.0573333,9.9122735 Z M68.1243419,13.4951795 C68.2255385,13.2073162 68.2255385,13.2073162 67.989641,13.079453 C68.0573333,13.2073162 68.0908376,13.3351795 68.1243419,13.4951795 L68.1243419,13.4951795 Z M68.1243419,9.24082051 C68.2590427,9.08047863 68.2255385,8.95261538 68.0573333,8.88868376 C67.6870769,8.76082051 68.1243419,9.24082051 68.1243419,9.24082051 L68.1243419,9.24082051 Z M68.2590427,11.7997949 C68.2255385,11.7355214 68.0908376,11.0319316 68.0908376,11.0319316 C67.7875897,11.3837265 67.8214359,11.6076581 68.2590427,11.7997949 L68.2590427,11.7997949 Z M67.6532308,16.4702222 C67.518188,16.5980855 67.518188,16.693812 67.6870769,16.7898803 C67.8214359,16.6620171 67.8214359,16.5659487 67.6532308,16.4702222 L67.6532308,16.4702222 Z M67.5520342,11.6715897 C67.7540855,11.288 67.7540855,11.288 67.4173333,11.1597949 C67.4850256,11.3197949 67.518188,11.4797949 67.5520342,11.6715897 L67.5520342,11.6715897 Z M66.7776752,7.57723077 C66.7441709,7.44936752 66.6433162,7.44936752 66.4751111,7.64116239 C66.4751111,7.80116239 66.6094701,7.80116239 66.7776752,7.57723077 L66.7776752,7.57723077 Z M77.3144274,5.05005128 C77.0453675,5.8497094 75.1937436,5.8497094 74.1838291,5.97791453 C72.938359,6.1697094 72.3322051,5.88184615 72.0292991,6.87329915 C71.3561368,8.69688889 73.6115214,8.24902564 74.8569915,8.15295726 C74.4193846,8.66475214 73.6788718,8.28082051 73.0727179,8.40902564 C71.4908376,8.76082051 71.9284444,8.88868376 71.7937436,10.5522735 C71.692547,12.5355214 71.692547,14.5827009 71.2887863,16.5341538 C71.0528889,14.390906 71.0197265,17.4298803 71.0197265,17.7177436 C70.9185299,19.0613333 70.8846838,20.3406496 70.8176752,21.6842393 C70.7164786,21.4285128 70.6494701,21.2042393 70.6494701,20.9485128 C70.5817778,21.6203077 70.2453675,22.9317607 69.6057094,22.0042393 C69.8747692,22.2278291 70.009812,22.2278291 70.009812,22.0042393 C69.5045128,22.0042393 68.9660513,21.5881709 68.8651966,21.2363761 C68.7301538,21.4603077 68.6631453,21.7160342 68.6292991,22.0042393 C68.5284444,21.4603077 68.4945983,20.9803077 68.3937436,20.4685128 C68.3937436,20.4685128 67.9222906,21.2363761 67.7540855,20.9803077 C67.6532308,20.8524444 66.441265,20.4367179 67.6532308,20.2767179 C66.8115214,19.8927863 67.3499829,19.0613333 67.3168205,18.6774017 C67.2491282,18.3891966 66.9127179,17.3977436 66.9462222,17.1098803 C67.1817778,17.6216752 67.4850256,16.7898803 66.9797265,17.1098803 C67.0809231,16.9820171 67.1817778,16.8220171 67.2491282,16.693812 C66.6094701,16.853812 67.3168205,15.8302222 66.6433162,15.6384274 C66.7106667,15.4784274 66.8453675,15.4144957 67.0135726,15.4144957 C66.6768205,15.3184274 66.6768205,15.1905641 67.0470769,15.062359 C66.4751111,14.9984274 66.7441709,13.9430427 66.8115214,13.910906 C66.4751111,13.6230427 66.6094701,9.08047863 66.0371624,9.11261538 C66.5421197,8.40902564 66.3739145,8.15295726 65.4651966,8.37688889 L65.4651966,10.5840684 L65.4651966,13.7830427 C65.4987009,16.3102222 65.6334017,18.805265 65.7677607,21.3642393 C64.758188,20.9485128 65.2292991,14.2948376 65.2292991,13.2073162 C65.195453,12.2476581 65.7345983,9.40047863 65.195453,8.66475214 C64.758188,7.99295726 61.8628034,8.15295726 60.8532308,8.28082051 C61.358188,7.57723077 64.3544274,8.12116239 65.195453,8.12116239 L65.195453,6.87329915 C64.9263932,7.25723077 63.9841709,6.9054359 63.7482735,6.55364103 C63.6135726,6.71364103 63.6135726,6.84150427 63.7482735,7.00150427 C63.2768205,7.28936752 62.9739145,6.55364103 63.1759658,6.26577778 C62.4351111,6.80936752 62.1660513,5.88184615 61.3916923,6.07364103 C61.492547,5.01825641 60.2474188,5.37005128 60.7858803,4.41039316 C58.8672479,3.41859829 61.4255385,3.48252991 62.0987009,3.48252991 C63.1424615,3.41859829 63.6809231,3.35466667 64.758188,3.25894017 C65.666906,3.16287179 67.1817778,2.81073504 68.2590427,2.84287179 C68.9322051,2.84287179 69.7400684,3.29073504 70.5482735,3.29073504 C71.861094,3.35466667 77.8532308,3.13073504 77.3144274,5.05005128 L77.3144274,5.05005128 Z" id="Fill-10" fill="#B72B49"></path>
                                    <path d="M87.3450598,11.0320684 C87.1768547,11.1599316 87.210359,11.2881368 87.2780513,11.4477949 C87.3112137,11.3199316 87.3112137,11.1599316 87.3450598,11.0320684 L87.3450598,11.0320684 Z M87.3112137,9.75241026 C87.1768547,9.8802735 87.210359,10.0402735 87.3112137,10.2002735 C87.210359,10.0402735 87.5471111,9.91241026 87.3112137,9.75241026 L87.3112137,9.75241026 Z M87.2780513,4.34625641 C87.0421538,4.37839316 87.3112137,6.74557265 87.3450598,7.09736752 C87.4801026,6.48950427 87.7491624,4.89018803 87.2780513,4.34625641 L87.2780513,4.34625641 Z M87.1430085,4.25052991 C87.4462564,4.18659829 87.2780513,3.77052991 87.1430085,3.57873504 L87.1430085,4.25052991 Z M87.0421538,16.4700171 C86.9748034,16.6621538 87.0086496,16.8221538 87.1095043,16.981812 C86.9748034,17.1096752 86.9748034,17.301812 87.0421538,17.5257436 C87.1768547,17.3657436 87.1430085,16.5660855 87.0421538,16.4700171 L87.0421538,16.4700171 Z M86.9077949,15.8942906 C87.1095043,15.9900171 87.1768547,15.7664274 87.1095043,15.5742906 C87.0421538,15.7024957 87.0086496,15.830359 86.907453,15.8942906 L86.9077949,15.8942906 Z M86.8739487,1.27548718 C87.210359,1.30762393 87.2780513,1.3394188 87.2780513,1.72335043 C86.8739487,1.7551453 86.8401026,1.69121368 86.8739487,1.27548718 L86.8739487,1.27548718 Z M84.1471111,16.3100171 C83.9115556,16.5660855 82.9689915,17.0778803 83.6083077,17.3978803 C83.3392479,17.5257436 83.2718974,17.6536068 83.4739487,17.9414701 C84.3826667,17.3978803 84.3491624,17.3978803 84.1471111,16.3100171 L84.1471111,16.3100171 Z M83.2380513,0.923692308 C83.373094,0.923692308 83.4739487,0.923692308 83.6083077,0.987623932 C83.6083077,1.1794188 83.2718974,1.08335043 83.2380513,0.923692308 L83.2380513,0.923692308 Z M84.0797607,13.6871111 C84.0797607,11.256 84.3491624,8.47309402 83.810359,6.04164103 C83.0698462,7.12916239 82.5313846,13.6231795 84.0797607,13.6871111 L84.0797607,13.6871111 Z M82.901641,8.82454701 C82.7669402,8.95275214 82.6322393,9.08061538 82.4640342,9.20882051 C82.6657436,9.40061538 82.901641,8.98488889 82.901641,8.82488889 L82.901641,8.82454701 Z M81.7235214,2.68300855 C81.7908718,2.71480342 81.8243761,2.74694017 81.8578803,2.74694017 C81.7908718,2.81087179 81.7570256,2.77873504 81.7235214,2.68300855 L81.7235214,2.68300855 Z M81.7235214,2.3951453 L81.7235214,2.68300855 C81.5549744,2.58694017 81.353265,2.3951453 81.7235214,2.3951453 L81.7235214,2.3951453 Z M81.0500171,15.1267692 C81.2855726,14.9346325 81.5214701,14.9024957 81.7908718,14.9024957 C82.1949744,14.358906 82.6657436,14.6146325 82.901641,14.0710427 C83.1036923,13.6871111 82.901641,12.9513846 82.901641,12.5353162 C82.901641,11.8317265 83.0698462,10.4242051 82.7669402,9.78454701 C82.3631795,9.20882051 82.1949744,10.0402735 81.9252308,10.8399316 C81.7570256,11.256 80.578906,14.9346325 81.0500171,15.1267692 L81.0500171,15.1267692 Z M81.5888205,3.09873504 C81.2855726,3.00300855 80.8479658,3.48266667 80.7136068,3.29052991 C80.3433504,2.74694017 81.6223248,2.97087179 81.1512137,2.65087179 C81.5214701,2.5551453 81.5214701,2.93873504 81.5888205,3.09873504 L81.5888205,3.09873504 Z M83.036,17.0778803 C81.7908718,17.7814701 80.4777094,18.1014701 80.5450598,19.6050598 C81.9252308,18.8050598 83.1710427,18.6771966 83.036,17.0778803 L83.036,17.0778803 Z M80.4777094,3.80266667 C80.4777094,3.83446154 80.5115556,3.86659829 80.5450598,3.89839316 C80.5115556,3.86659829 80.4777094,3.83446154 80.4777094,3.80266667 L80.4777094,3.80266667 Z M80.5450598,13.878906 C80.578906,13.7510427 80.578906,13.6231795 80.6127521,13.4631795 C80.4442051,13.6871111 80.4442051,13.6871111 80.5450598,13.878906 L80.5450598,13.878906 Z M80.4777094,3.80266667 C80.3095043,3.51480342 80.3768547,3.41873504 80.7136068,3.54659829 C80.5450598,3.61052991 80.4442051,3.70659829 80.4777094,3.80266667 L80.4777094,3.80266667 Z M80.2086496,20.1168547 C80.107453,20.5325812 80.1412991,20.8525812 80.4107009,21.0125812 C80.4442051,20.7247179 80.4107009,20.4365128 80.2086496,20.1168547 L80.2086496,20.1168547 Z M80.2086496,19.8607863 C80.4442051,19.4771966 80.2756581,19.1889915 80.1748034,18.9011282 C80.0404444,19.1571966 80.0404444,19.3811282 80.2086496,19.8607863 L80.2086496,19.8607863 Z M80.7136068,4.37839316 C78.8623248,5.17805128 77.8520684,9.30454701 77.481812,10.9999316 C77.2462564,11.8956581 76.1689915,16.150359 76.9430085,16.6621538 C77.4144615,16.981812 78.1549744,11.1599316 78.2561709,10.7120684 C78.7946325,8.47309402 79.7033504,6.4577094 80.7136068,4.37839316 L80.7136068,4.37839316 Z M87.6144615,15.6385641 C87.850359,15.4785641 89.6007863,14.3267692 89.7689915,14.518906 C88.7590769,15.4464274 87.9173675,15.4785641 87.5471111,16.7260855 C87.1095043,17.9736068 87.5471111,19.4450598 87.1430085,20.6925812 C87.0421538,19.8929231 87.210359,19.0293333 87.0421538,18.2293333 C86.4024957,18.9654017 87.8838632,23.5715556 85.358735,22.6440342 C84.2144615,22.1961709 84.2479658,18.5493333 84.3491624,17.7814701 C83.8777094,18.0693333 83.676,18.2293333 83.5751453,18.4536068 C83.676,18.4214701 83.7095043,18.4854017 83.7765128,18.613265 C83.676,18.613265 83.5751453,18.6454017 83.5412991,18.5493333 C83.4739487,18.7411282 83.4401026,18.9654017 83.4062564,19.3489915 C83.373094,19.5089915 83.5412991,21.0443761 83.204547,20.9804444 C83.204547,20.1489915 83.1710427,19.3168547 83.1036923,18.4854017 C82.4640342,18.613265 80.9830085,19.3811282 80.6127521,19.8929231 C80.3433504,20.4365128 80.6459145,23.0276239 79.9054017,22.1322393 C79.9054017,23.2515556 79.7371966,22.1322393 79.333094,22.2601026 C79.4342906,23.0915556 78.4243761,22.2601026 78.1549744,22.0040342 C77.8520684,21.6843761 77.9194188,20.8843761 77.5826667,20.4686496 C77.6165128,20.4365128 77.9867692,18.3893333 76.6401026,19.9889915 C76.2698462,20.4365128 76.9768547,22.8040342 77.1115556,23.3476239 C76.3707009,23.1558291 76.3707009,19.6368547 76.3707009,19.1889915 C76.2024957,19.2211282 75.9669402,19.2850598 75.798735,19.2850598 C75.4958291,18.5493333 76.6065983,19.3168547 75.4958291,18.5175385 C75.6640342,18.5175385 75.798735,18.5493333 75.9669402,18.5493333 C75.630188,18.3254017 76.2363419,17.2378803 76.3707009,16.5660855 C76.6401026,15.4142906 76.5392479,14.1028376 76.6739487,12.9195897 C76.8421538,11.5438632 77.0780513,10.4242051 77.5153162,9.17668376 C77.7173675,8.37702564 78.0879658,7.54523077 78.5252308,6.7134359 C78.7946325,6.2977094 79.6698462,5.14625641 79.333094,4.95411966 C79.501641,4.89018803 79.804547,4.53839316 80.2086496,4.18659829 C80.107453,4.15446154 80.0404444,4.05839316 80.0404444,3.83446154 C80.2756581,3.89839316 80.4107009,3.93052991 80.4777094,3.93052991 C80.4777094,3.96232479 80.4777094,3.96232479 80.4442051,3.96232479 C80.8479658,3.67446154 81.3194188,3.41873504 81.7570256,3.48266667 C81.7570256,3.29052991 81.6558291,3.16266667 81.5888205,3.09873504 C81.7908718,3.16266667 81.8917265,3.09873504 81.8578803,2.74694017 C82.901641,1.9794188 82.0599316,2.5551453 81.7235214,2.3951453 C81.7235214,2.10728205 81.8917265,1.8194188 82.3631795,1.9151453 C82.3966838,1.46728205 82.3631795,1.88335043 82.7669402,1.43548718 C82.8004444,1.62728205 82.901641,1.62728205 83.1710427,1.62728205 C83.2380513,1.43548718 83.204547,1.30762393 82.9689915,1.21155556 C83.4062564,1.21155556 83.9115556,1.56335043 83.9785641,0.891555556 C84.6520684,1.30762393 85.8640342,0.923692308 86.2681368,1.5951453 C86.301641,1.40335043 86.4024957,1.30762393 86.5371966,1.1794188 C86.7057436,1.72335043 86.604547,2.01121368 87.1095043,2.42694017 C87.4801026,1.05155556 88.4223248,4.79411966 88.4223248,5.24198291 C88.5908718,7.54523077 87.7826667,9.8802735 88.0185641,12.1195897 C88.7925812,11.8956581 90.1727521,10.9038632 91.081812,11.2881368 C91.7888205,11.5438632 90.7115556,12.0235214 91.5194188,11.9595897 C91.553265,12.6953162 89.2975385,13.3992479 88.7590769,13.7828376 C87.7826667,14.3907009 87.7153162,14.518906 87.6144615,15.6385641 L87.6144615,15.6385641 Z" id="Fill-12" fill="#B72B49"></path>
                                    <path d="M106.296684,7.51326496 L106.296684,7.96112821 C105.993778,7.92899145 105.960274,7.44933333 106.296684,7.51326496 L106.296684,7.51326496 Z M104.983863,9.88044444 C104.916513,9.94437607 104.882667,10.0404444 104.815658,10.0722393 C104.916513,10.0404444 105.084718,10.0722393 104.983863,9.88044444 L104.983863,9.88044444 Z M104.815658,9.36864957 C104.546256,9.78437607 104.680615,9.9125812 105.185915,9.72044444 C105.252923,9.52864957 105.118564,9.40078632 104.815658,9.36864957 L104.815658,9.36864957 Z M104.074803,5.08215385 C104.546256,5.30608547 104.882667,5.69001709 105.017709,6.23360684 C104.748308,5.81788034 104.445402,5.37001709 104.074803,5.08215385 L104.074803,5.08215385 Z M104.310359,17.2698462 C104.445402,17.1419829 104.478906,16.9819829 104.378051,16.8219829 C104.647111,16.470188 104.613607,15.830188 104.176,15.6383932 C103.906598,16.1819829 104.074803,16.6941197 104.310359,17.2698462 L104.310359,17.2698462 Z M104.24335,10.2322393 C104.10865,10.7118974 103.940103,10.2961709 103.940103,10.6479658 C104.041299,10.6479658 104.176,10.7118974 104.310359,10.7440342 C104.613607,10.5522393 104.546256,10.3604444 104.24335,10.2322393 L104.24335,10.2322393 Z M104.074803,14.358735 C104.074803,14.4865983 104.041299,14.5826667 103.940103,14.6148034 C103.906598,14.4865983 103.906598,14.3269402 104.074803,14.358735 L104.074803,14.358735 Z M103.132239,18.1334359 C103.368137,18.0377094 103.603692,17.8455726 103.771897,17.621641 C102.930188,17.9734359 103.771897,17.1098462 103.805744,16.8537778 C103.19959,17.1098462 103.031385,17.621641 103.132239,18.1334359 L103.132239,18.1334359 Z M102.492923,16.3741197 C102.728137,16.1819829 102.728137,16.1819829 102.627624,15.9583932 C102.593778,16.1180513 102.559932,16.2459145 102.492923,16.3741197 L102.492923,16.3741197 Z M102.055316,18.7412991 C102.425573,18.6452308 102.559932,18.3573675 102.863179,18.2612991 C102.795829,18.1334359 102.728137,18.1973675 102.627624,18.3573675 C102.35788,18.3573675 102.189675,18.4852308 102.055316,18.7412991 L102.055316,18.7412991 Z M101.617368,18.8691624 C101.550017,18.6773675 101.381812,18.7412991 101.179761,19.0612991 C101.415658,19.093094 101.550017,19.0291624 101.617368,18.8691624 L101.617368,18.8691624 Z M99.6652308,11.7036923 C99.4966838,11.7036923 99.2949744,11.6718974 99.2272821,11.8315556 C99.3954872,11.7997607 99.5305299,11.7358291 99.6652308,11.7036923 L99.6652308,11.7036923 Z M100.809504,14.7426667 C100.304889,14.5826667 99.1264274,14.4548034 98.9917265,14.518735 C99.0929231,14.3269402 98.8570256,14.358735 98.8570256,14.4548034 C98.9582222,14.9026667 99.3954872,15.5744615 99.2949744,16.2459145 C99.2272821,17.2377094 98.2173675,17.621641 97.9821538,18.4534359 C99.1937778,17.6855726 101.179761,17.621641 101.920274,16.4062564 C102.627624,15.3183932 101.617368,14.998735 100.809504,14.7426667 L100.809504,14.7426667 Z M98.1165128,20.8524103 C98.0830085,20.6284786 97.9483077,20.6924103 97.6115556,20.9484786 C97.6450598,21.1084786 97.8136068,21.1084786 98.1165128,20.8524103 L98.1165128,20.8524103 Z M102.459077,8.79292308 L102.189675,8.34505983 L99.7325812,8.0568547 C99.5305299,8.08899145 99.4293333,8.47292308 99.2949744,8.0568547 C99.2272821,8.15292308 99.1937778,8.28112821 99.2949744,8.40899145 C98.6888205,8.3768547 97.8809573,8.3768547 97.6115556,7.99292308 C97.5442051,8.5368547 97.5442051,9.46471795 97.678906,10.0083077 C97.9144615,11.0001026 97.7462564,10.9040342 98.6888205,10.7118974 C99.698735,10.5522393 101.045402,9.7525812 101.987624,8.98471795 C102.425573,9.24078632 102.055316,8.79292308 102.459077,8.79292308 L102.459077,8.79292308 Z M97.5107009,6.48967521 C97.6450598,6.58574359 97.7462564,6.61753846 97.8136068,6.71360684 C97.9821538,6.55360684 97.8809573,6.48967521 97.5107009,6.48967521 L97.5107009,6.48967521 Z M97.5442051,18.2295043 C98.3185641,17.621641 99.0929231,17.0141197 99.0929231,16.0223248 C99.0929231,15.5744615 98.9247179,14.4865983 98.2512137,14.518735 C98.2512137,14.4548034 98.2512137,14.3269402 98.3185641,14.2308718 C97.8809573,14.5826667 97.8809573,13.9108718 97.5442051,14.5826667 C97.376,14.998735 97.6450598,15.830188 97.6115556,16.1819829 C97.6115556,16.7259145 97.1739487,17.6855726 97.5442051,18.2295043 L97.5442051,18.2295043 Z M97.4768547,7.41719658 C97.376,7.41719658 97.3086496,7.44933333 97.1739487,7.44933333 C97.3424957,7.54505983 97.3424957,7.54505983 97.4768547,7.41719658 L97.4768547,7.41719658 Z M96.904547,8.24899145 C96.770188,8.28112821 96.6351453,8.34505983 96.5007863,8.3768547 C96.5007863,8.98471795 96.3322393,11.2558291 96.8710427,11.3197607 C97.0057436,10.2961709 97.1065983,9.30471795 96.904547,8.24899145 L96.904547,8.24899145 Z M97.0392479,6.61753846 C96.8036923,6.39360684 96.1978803,6.48967521 95.8946325,6.48967521 C95.8611282,6.84147009 96.904547,6.68147009 97.0392479,6.61753846 L97.0392479,6.61753846 Z M96.3322393,13.3990769 C96.3322393,14.1669402 96.1978803,15.2223248 96.1640342,15.7023248 C96.1305299,16.3741197 95.4570256,18.7734359 95.8946325,19.0612991 C95.9284786,18.5173675 96.1978803,16.1819829 96.5007863,15.990188 C96.6019829,15.2223248 97.073094,13.8790769 96.3322393,13.3990769 L96.3322393,13.3990769 Z M95.6925812,21.3002735 C95.4570256,21.044547 95.1879658,20.9806154 95.2888205,21.3963419 C95.4235214,21.3642051 95.5582222,21.3642051 95.6925812,21.3002735 L95.6925812,21.3002735 Z M95.0529231,9.36864957 C95.0197607,9.36864957 94.8177094,9.65651282 94.8847179,9.7525812 C95.0529231,9.7525812 95.1541197,9.62437607 95.0529231,9.36864957 L95.0529231,9.36864957 Z M94.9859145,6.71360684 C94.7165128,6.68147009 94.6826667,6.68147009 94.3801026,6.84147009 C94.6156581,6.87326496 94.8177094,6.80933333 94.9859145,6.71360684 L94.9859145,6.71360684 Z M94.8177094,20.4366838 C94.8177094,20.2127521 94.0098462,20.2127521 94.1780513,20.6284786 C94.4806154,20.724547 94.7165128,20.6924103 94.8177094,20.4366838 L94.8177094,20.4366838 Z M94.2454017,21.6842051 C94.278906,21.8120684 94.278906,21.876 94.278906,21.9720684 C94.0433504,21.876 94.0433504,21.8442051 94.2454017,21.6842051 L94.2454017,21.6842051 Z M94.1780513,7.83326496 C94.1442051,7.67326496 94.0433504,7.67326496 93.8412991,7.83326496 C93.8751453,7.96112821 93.976,7.96112821 94.1780513,7.83326496 L94.1780513,7.83326496 Z M93.7065983,17.2698462 C93.4375385,17.4298462 93.4036923,17.5577094 93.5718974,17.781641 C93.8412991,17.6537778 93.8751453,17.4937778 93.7065983,17.2698462 L93.7065983,17.2698462 Z M93.6057436,18.1973675 C93.2693333,18.1973675 93.2693333,18.3252308 93.5383932,18.5173675 L93.6057436,18.1973675 Z M93.5718974,6.90540171 C93.504547,6.90540171 93.4375385,6.96933333 93.2693333,7.00147009 C93.504547,7.00147009 93.504547,7.00147009 93.5718974,6.90540171 L93.5718974,6.90540171 Z M93.0672821,15.0626667 C92.730188,15.0305299 92.6631795,14.9348034 92.7978803,14.8065983 C93.0672821,14.8708718 93.1342906,14.9348034 93.0672821,15.0626667 L93.0672821,15.0626667 Z M92.4276239,18.5495043 L92.5958291,18.8052308 C92.5958291,18.8052308 92.5284786,18.7412991 92.4276239,18.5495043 L92.4276239,18.5495043 Z M92.1917265,16.5980513 C92.2255726,16.6941197 92.2590769,16.7898462 92.2590769,16.8537778 C92.0908718,16.8859145 92.0908718,16.7259145 92.1917265,16.5980513 L92.1917265,16.5980513 Z M92.1243761,7.96112821 C91.9561709,8.15292308 91.9561709,8.21719658 92.0908718,8.40899145 C92.2590769,8.28112821 92.1917265,8.15292308 92.1243761,7.96112821 L92.1243761,7.96112821 Z M91.6871111,7.44933333 C91.6194188,7.51326496 91.5185641,7.54505983 91.3838632,7.64112821 C91.6194188,7.67326496 91.653265,7.54505983 91.6871111,7.44933333 L91.6871111,7.44933333 Z M91.0809573,6.58574359 C90.9797607,6.61753846 90.9462564,6.71360684 90.9127521,6.80933333 C91.0809573,6.74540171 91.0809573,6.74540171 91.0809573,6.58574359 L91.0809573,6.58574359 Z M105.252923,11.3840342 C104.24335,12.0236923 102.559932,12.8233504 101.550017,12.8551453 C101.752068,13.2712137 103.502496,14.2308718 103.738393,14.198735 C103.502496,14.4226667 104.074803,15.0626667 104.445402,15.0305299 C104.310359,14.9348034 104.310359,14.8708718 104.445402,14.7426667 L104.445402,15.0305299 C104.51241,15.0305299 104.580103,14.9665983 104.647111,14.9026667 C105.084718,14.998735 104.51241,15.5744615 105.050872,15.4465983 C104.815658,15.7341197 105.219761,16.1819829 105.084718,16.7898462 C104.882667,17.621641 104.378051,17.781641 103.738393,18.3252308 C103.166085,18.8052308 101.920274,20.1806154 101.68506,19.4448889 C101.381812,20.4688205 98.7896752,21.2363419 97.7462564,21.4602735 C97.0392479,21.6842051 95.6255726,22.2281368 94.9185641,22.0681368 C95.0197607,22.2920684 94.9859145,22.516 94.6156581,22.516 C94.750359,22.0042051 94.6156581,21.8442051 94.3801026,21.3642051 C94.110359,21.4284786 94.8177094,22.3877949 93.976,21.1402735 C93.976,21.3002735 93.9421538,21.5242051 93.8077949,21.6520684 C93.5718974,21.3642051 93.504547,21.044547 93.4375385,20.724547 C93.7401026,20.2766838 93.6057436,20.0206154 93.0672821,19.9248889 C92.7978803,19.4448889 92.6293333,19.7648889 92.9660855,19.3170256 L92.5958291,18.8052308 C92.730188,18.8052308 92.4949744,17.7495043 92.3937778,17.6855726 C92.5619829,17.6537778 92.730188,17.6855726 92.9322393,17.781641 C92.7978803,17.4298462 92.9660855,17.3977094 93.2354872,17.621641 C92.9995897,17.3655726 92.4949744,17.2377094 92.4949744,16.8219829 C92.8652308,16.6941197 92.5284786,17.2059145 92.9322393,16.7898462 C92.7978803,16.6941197 92.5619829,16.1819829 92.5619829,16.1819829 C93.3698462,16.0541197 92.4276239,15.9583932 92.6631795,15.7023248 C93.3024957,16.1180513 93.1342906,14.3269402 93.8077949,14.1669402 C93.3698462,13.9430085 93.2693333,13.2072821 93.8412991,13.3990769 C93.8751453,13.0794188 93.4036923,12.6315556 93.9421538,12.5033504 C93.7065983,12.3115556 93.7065983,11.9915556 93.8077949,11.8636923 C93.976,11.7358291 94.1442051,11.7997607 94.3801026,11.8958291 C94.3124103,11.7997607 93.976,11.3840342 93.8751453,11.3197607 C94.0098462,11.3197607 94.1442051,11.3197607 94.3124103,11.2879658 C93.8751453,11.0318974 94.1442051,10.3604444 94.6826667,10.4883077 L94.1442051,9.9125812 C94.1780513,9.7525812 94.3124103,9.7525812 94.5483077,9.94437607 C94.5483077,9.72044444 94.2454017,9.20864957 94.1442051,9.17651282 C94.4136068,9.04864957 94.581812,8.5368547 94.3124103,8.28112821 C93.1681368,8.9525812 92.9660855,8.08899145 92.5284786,9.40078632 C92.0573675,10.7761709 92.1917265,12.6954872 92.0908718,14.1669402 C91.9561709,15.7662564 92.2929231,18.8691624 91.5520684,20.3406154 C90.9127521,20.0527521 91.7541197,15.1583932 91.7879658,14.4865983 C91.8553162,13.3351453 91.9561709,12.1515556 92.0908718,11.0001026 C92.1243761,10.5522393 92.730188,8.5368547 91.8553162,9.04864957 C91.7879658,8.92078632 91.3500171,7.32112821 91.181812,8.63292308 C90.8115556,8.21719658 90.0371966,7.86505983 90.5086496,8.6968547 C89.6334359,8.6968547 90.878906,7.67326496 90.9797607,7.54505983 C90.5424957,7.54505983 90.7777094,7.32112821 91.047453,7.22540171 C90.8115556,7.16147009 90.7442051,7.03326496 90.7777094,6.84147009 C90.5424957,6.74540171 90.6095043,7.16147009 90.3404444,6.96933333 C90.9797607,6.71360684 91.3838632,5.65788034 92.2255726,6.16967521 C92.5284786,5.78574359 93.9421538,4.76215385 94.8177094,5.33788034 C94.8847179,5.05001709 97.678906,4.82608547 97.9483077,4.76215385 C99.698735,4.3785641 101.920274,4.0585641 103.637538,4.7942906 C103.805744,4.85822222 103.940103,4.9542906 104.074803,5.08215385 C102.492923,4.25035897 99.4631795,4.76215385 98.2512137,5.01822222 C98.3524103,5.05001709 99.2611282,5.14608547 99.0590769,4.89035897 C99.8669402,4.82608547 102.896684,6.07394872 103.166085,5.30608547 C103.637538,5.97788034 104.310359,6.07394872 105.050872,6.61753846 C105.050872,6.48967521 105.017709,6.36147009 105.017709,6.23360684 C105.387966,6.77753846 105.690872,7.28933333 106.061128,7.28933333 C106.094632,7.57719658 105.960274,7.64112821 105.690872,7.51326496 C105.556171,7.92899145 106.229333,8.6968547 105.252923,8.88864957 C105.522325,8.9525812 105.657026,9.36864957 105.791726,9.5925812 C105.960274,9.49651282 105.825231,8.76078632 105.825231,8.76078632 C105.960274,8.79292308 106.094632,8.82471795 106.229333,8.92078632 C105.960274,8.47292308 105.926427,7.80112821 106.566085,8.21719658 C106.364034,7.96112821 106.39788,7.80112821 106.66694,7.67326496 C107.84506,8.66471795 106.262838,10.7118974 105.252923,11.3840342 L105.252923,11.3840342 Z" id="Fill-14" fill="#B72B49"></path>
                                    <g id="Group-18" transform="translate(107.692308, 4.886803)">
                                        <mask id="mask-4" fill="white">
                                            <use xlink:href="#path-3"></use>
                                        </mask>
                                        <g id="Clip-17"></g>
                                        <path d="M10.1168205,1.02707692 C10.0494701,0.834940171 10.0829744,0.771008547 10.2176752,0.803145299 C10.2515214,0.994940171 10.2515214,1.05887179 10.1168205,1.02707692 L10.1168205,1.02707692 Z M9.30895726,6.91288889 C9.07305983,7.00895726 9.20776068,7.13682051 9.24126496,7.23288889 C9.27511111,7.13682051 9.27511111,7.04075214 9.30895726,6.91288889 L9.30895726,6.91288889 Z M9.8474188,4.51391453 C9.40981197,4.2257094 9.54417094,5.08964103 9.44331624,5.21750427 C9.34246154,5.0257094 9.24126496,4.99357265 9.14075214,5.12177778 C9.91476923,5.31357265 9.30895726,6.11323077 8.93870085,6.30502564 C9.10690598,6.40109402 9.24126496,6.52895726 9.34246154,6.68895726 C9.78006838,6.11323077 9.47716239,5.0257094 9.8474188,4.51391453 L9.8474188,4.51391453 Z M8.73664957,7.23288889 C8.93870085,7.29682051 8.93870085,7.29682051 9.0057094,7.13682051 L8.73664957,7.23288889 Z M9.03955556,8.35254701 C8.63545299,8.64041026 8.50075214,9.05613675 8.77015385,9.47220513 C8.97186325,9.31186325 8.93870085,8.64041026 9.03955556,8.35254701 L9.03955556,8.35254701 Z M9.14075214,7.45682051 C9.03955556,7.71254701 8.83750427,7.84075214 8.56810256,7.87254701 C8.77015385,7.93647863 8.97186325,7.96861538 9.17391453,8.03254701 C9.24126496,7.84075214 9.20776068,7.64861538 9.14075214,7.45682051 L9.14075214,7.45682051 Z M8.50075214,5.31357265 C8.36639316,4.99357265 8.43340171,4.8657094 8.63545299,4.89750427 C8.73664957,5.24964103 8.70280342,5.37750427 8.50075214,5.31357265 L8.50075214,5.31357265 Z M8.33254701,9.79186325 C8.26519658,9.9197265 8.33254701,10.0797265 8.60160684,10.1757949 C8.73664957,9.9197265 8.66929915,9.79186325 8.33254701,9.79186325 L8.33254701,9.79186325 Z M8.33254701,10.6236581 C8.23135043,10.6875897 8.26519658,10.7836581 8.46724786,10.8475897 C8.53459829,10.7197265 8.46724786,10.6236581 8.33254701,10.6236581 L8.33254701,10.6236581 Z M8.23135043,9.53613675 C8.43340171,9.69579487 8.56810256,9.63186325 8.56810256,9.37613675 C8.43340171,9.44006838 8.33254701,9.47220513 8.23135043,9.53613675 L8.23135043,9.53613675 Z M8.46724786,7.80861538 L8.09699145,7.55254701 C8.0631453,7.64861538 8.0631453,7.77647863 8.0631453,7.87254701 C8.19784615,7.90468376 8.33254701,7.87254701 8.46724786,7.80861538 L8.46724786,7.80861538 Z M8.02964103,10.144 C8.19784615,10.2079316 8.23135043,10.1118632 8.26519658,9.95186325 C8.16434188,10.0157949 8.09699145,10.0797265 8.02964103,10.144 L8.02964103,10.144 Z M8.39989744,11.0393846 C8.0631453,10.8793846 7.86109402,10.975453 7.76023932,11.295453 C7.99579487,11.2315214 8.19784615,11.135453 8.39989744,11.0393846 L8.39989744,11.0393846 Z M7.76023932,11.6793846 C7.62553846,11.6793846 7.49083761,11.6472479 7.52468376,11.8711795 C7.62553846,11.7751111 7.69288889,11.7433162 7.76023932,11.6793846 L7.76023932,11.6793846 Z M7.59169231,10.5915214 C7.72673504,10.5275897 7.42348718,10.3036581 7.28912821,10.5275897 C7.38998291,10.5597265 7.49083761,10.5597265 7.59169231,10.5918632 L7.59169231,10.5915214 Z M7.35647863,12.4790427 C7.52468376,12.3190427 7.52468376,12.2229744 7.35647863,12.2229744 C7.35647863,12.4790427 7.25528205,12.7990427 7.25528205,12.9587009 C7.55852991,13.0865641 7.65938462,12.4790427 7.35647863,12.4790427 L7.35647863,12.4790427 Z M7.25528205,11.2315214 C7.45733333,11.135453 7.52468376,10.975453 7.52468376,10.7515214 C7.25528205,10.7836581 7.1882735,11.0393846 7.25528205,11.2315214 L7.25528205,11.2315214 Z M7.1882735,13.5026325 C7.1882735,13.3747692 7.15442735,13.2465641 7.15442735,13.1187009 C6.98622222,13.3108376 6.98622222,13.3108376 7.1882735,13.5026325 L7.1882735,13.5026325 Z M5.57220513,8.83220513 C5.60605128,8.9282735 5.60605128,9.02434188 5.63921368,9.12006838 C5.47100855,9.05613675 5.47100855,8.96041026 5.57220513,8.83220513 L5.57220513,8.83220513 Z M4.19203419,17.1494701 C4.49494017,17.0534017 4.69664957,16.7973333 5.06690598,16.6376752 C4.76434188,16.9573333 4.49494017,17.1173333 4.19203419,17.1494701 L4.19203419,17.1494701 Z M3.31647863,0.771008547 C3.28297436,0.675282051 3.21562393,0.579213675 3.18211966,0.483145299 C3.85562393,0.931008547 3.35032479,0.643145299 3.31647863,0.771008547 L3.31647863,0.771008547 Z M3.28297436,13.6304957 C3.18211966,13.598359 3.0474188,13.5665641 2.94622222,13.5026325 C2.87921368,13.598359 3.18211966,13.9826325 3.28297436,13.6304957 L3.28297436,13.6304957 Z M2.74451282,3.64998291 C3.0474188,3.68211966 3.08126496,3.52211966 2.84536752,3.20211966 L2.74451282,3.64998291 Z M2.87921368,4.16177778 C2.98006838,3.64998291 3.01391453,3.64998291 2.57596581,3.96998291 L2.87921368,4.16177778 Z M2.57596581,4.35391453 C2.50861538,4.44964103 2.54246154,4.48177778 2.71066667,4.51391453 C2.67716239,4.41784615 2.64365812,4.35391453 2.57596581,4.35391453 L2.57596581,4.35391453 Z M2.40776068,9.37613675 C2.34041026,9.24793162 2.3065641,8.67220513 2.3065641,8.51254701 C2.64365812,8.67220513 2.47511111,9.15220513 2.40776068,9.37613675 L2.40776068,9.37613675 Z M2.27340171,2.49852991 C2.37425641,2.59425641 2.44160684,2.69032479 2.57596581,2.49852991 L2.27340171,2.49852991 Z M2.44160684,7.96861538 C2.17220513,7.96861538 2.10451282,7.77647863 2.23955556,7.36075214 C2.47511111,7.52075214 2.54246154,7.71254701 2.44160684,7.96861538 L2.44160684,7.96861538 Z M2.57596581,9.79186325 C2.54246154,9.37613675 2.60981197,8.83220513 2.60981197,8.19254701 C2.60981197,7.58468376 2.84536752,5.31357265 2.71066667,4.57784615 C2.17220513,4.83357265 2.23955556,5.21750427 2.71066667,5.08964103 C2.60981197,5.34536752 2.50861538,5.34536752 2.37425641,5.21750427 C2.37425641,5.63357265 2.07135043,6.46502564 2.03750427,6.56109402 C2.57596581,6.27323077 2.74451282,7.07288889 2.13835897,7.16895726 C2.3065641,6.91288889 2.3065641,6.84895726 2.07135043,7.00895726 C1.76810256,7.58468376 2.27340171,8.41647863 2.34041026,8.51254701 C2.27340171,8.41647863 2.17220513,8.35254701 2.03750427,8.38434188 C2.2057094,9.37613675 2.27340171,11.2315214 2.81186325,11.9990427 C3.1482735,11.615453 2.57596581,10.3357949 2.57596581,9.79186325 L2.57596581,9.79186325 Z M1.80194872,5.66536752 L1.59989744,5.50536752 C1.49904274,5.82536752 1.73425641,5.63357265 1.80194872,5.66536752 L1.80194872,5.66536752 Z M1.86929915,6.43323077 C1.53254701,6.08109402 1.43169231,6.08109402 1.53254701,6.43323077 L1.86929915,6.43323077 Z M11.7660513,7.77647863 C11.6651966,9.344 11.5304957,10.9433162 11.1602393,12.4790427 C11.0593846,12.8947692 10.2850256,14.558359 10.6891282,14.8462222 C10.2515214,14.9419487 9.9482735,15.229812 10.1838291,15.7737436 C10.0494701,15.7419487 9.9482735,15.6458803 9.88126496,15.4858803 C9.40981197,15.9655385 9.44331624,16.4134017 9.07305983,16.861265 C9.14075214,16.5094701 9.03955556,16.3494701 8.83750427,16.3494701 C8.66929915,17.4051966 8.73664957,16.8934017 8.26519658,16.861265 C7.92878632,18.5887863 6.5482735,16.4773333 5.5048547,16.5416068 C5.33664957,16.5416068 5.20194872,16.6055385 5.06690598,16.6376752 C5.10075214,16.6055385 5.16810256,16.5416068 5.20194872,16.4773333 C5.03374359,16.3176752 4.15818803,15.7737436 4.29288889,15.5180171 C3.98998291,15.549812 3.38417094,15.2937436 3.48502564,14.8780171 C4.5622906,15.389812 3.28297436,14.6862222 3.21562393,14.5262222 C3.38417094,14.2062222 2.27340171,12.446906 2.07135043,11.8390427 C1.86929915,11.1993846 0.893230769,9.05613675 1.66724786,8.44861538 C1.53254701,8.35254701 1.43169231,8.38434188 1.29699145,8.54434188 C1.26348718,8.16041026 1.09494017,7.80861538 1.49904274,7.58468376 C1.19579487,7.48861538 0.893230769,6.33716239 1.59989744,6.72109402 C1.70109402,6.56109402 1.59989744,6.49716239 1.53254701,6.46502564 C0.724683761,6.59288889 1.76810256,4.57784615 1.86929915,4.41784615 C1.26348718,4.2257094 1.66724786,3.42639316 1.76810256,2.94639316 C2.004,1.95459829 2.44160684,1.82673504 2.91271795,1.15494017 C2.47511111,0.675282051 2.81186325,0.643145299 3.28297436,0.771008547 C3.24947009,0.963145299 3.21562393,1.12280342 3.08126496,1.25100855 C3.48502564,1.15494017 3.55237607,1.2831453 3.24947009,1.69887179 C3.0474188,0.931008547 2.98006838,2.46639316 3.01391453,2.56246154 C3.0474188,2.56246154 3.68673504,1.25100855 3.78793162,1.12280342 C4.25904274,0.611008547 3.82177778,0.898871795 4.5622906,0.675282051 C5.5048547,0.387076923 4.69664957,0.803145299 4.69664957,0.931008547 C5.70690598,1.12280342 5.30280342,0.739213675 5.74041026,0.419213675 C6.78417094,1.44280342 5.87511111,3.58605128 5.70690598,4.73784615 C5.63921368,5.34536752 5.30280342,7.04075214 5.404,7.36075214 C5.53835897,7.93647863 5.30280342,8.96041026 5.43716239,9.79186325 C5.5048547,10.3357949 5.70690598,12.5108376 6.07716239,12.9587009 C6.14451282,12.6390427 6.3465641,12.5108376 6.71682051,12.6390427 C6.38006838,11.5193846 7.05323077,9.44006838 7.1205812,8.06434188 C7.1882735,7.10468376 6.75032479,1.95459829 7.62553846,1.57066667 C7.92878632,1.82673504 7.52468376,4.96177778 7.52468376,5.47357265 C7.45733333,6.75288889 7.1882735,8.16041026 7.32263248,9.44006838 C7.59169231,9.504 7.86109402,9.37613675 8.16434188,9.15220513 C6.75032479,8.70434188 8.66929915,7.52075214 7.9622906,6.91288889 C9.14075214,7.00895726 8.36639316,5.69750427 8.46724786,5.4414359 C9.47716239,5.56929915 8.73664957,4.3857094 8.63545299,4.16177778 C9.54417094,4.16177778 8.93870085,3.87391453 8.77015385,3.90605128 C9.24126496,3.68211966 9.03955556,3.39425641 9.34246154,3.36211966 C9.27511111,3.17032479 9.17391453,3.01032479 9.03955556,2.85032479 C9.34246154,2.33852991 9.74622222,1.63459829 9.67921368,0.931008547 C9.74622222,0.834940171 9.8474188,0.834940171 9.9482735,0.898871795 C10.1838291,1.05887179 10.2515214,1.89066667 9.78006838,2.01852991 C10.1168205,2.17852991 10.1168205,2.37066667 9.67921368,2.33852991 C9.98177778,2.72246154 10.0494701,3.10639316 9.47716239,3.17032479 C9.88126496,4.00211966 9.64536752,3.61818803 9.34246154,4.25784615 C10.0494701,4.32177778 10.1503248,2.46639316 10.2850256,1.92280342 C10.3520342,1.63459829 10.2850256,1.09100855 10.5540855,0.643145299 C10.8573333,0.131350427 10.8911795,0.419213675 11.1602393,0.00348717949 C11.5978462,0.931008547 11.9681026,0.483145299 12.035453,1.95459829 C12.1028034,3.90605128 11.9342564,5.85716239 11.7660513,7.77647863 L11.7660513,7.77647863 Z M4.19203419,17.1494701 C3.95613675,17.2134017 3.6197265,17.1494701 3.0474188,16.7655385 C2.23955556,16.2216068 1.73425641,15.1340855 1.39784615,14.2701538 C0.623487179,12.3511795 0.320923077,10.2079316 0.287076923,8.16041026 C0.253230769,7.00895726 0.152376068,2.24246154 1.43169231,1.76280342 C0.489128205,4.76964103 0.35408547,7.96861538 0.825538462,11.0393846 C0.960239316,11.9351111 2.40776068,17.3091282 4.19203419,17.1494701 L4.19203419,17.1494701 Z" id="Fill-16" fill="#B72B49" mask="url(#mask-4)"></path>
                                    </g>
                                </g>
                            </g>
                        </g>
                    </g>
                </g>
            </g>
        </g>
    </g>
</svg>