<?xml version="1.0" encoding="UTF-8"?>
<svg width="86px" height="86px" viewBox="0 0 86 86" version="1.1" xmlns="http://www.w3.org/2000/svg" xmlns:xlink="http://www.w3.org/1999/xlink">
    <!-- Generator: sketchtool 58 (101010) - https://sketch.com -->
    <title>E27378F6-FAFF-4B7D-838E-6B12B8A3110F</title>
    <desc>Created with sketchtool.</desc>
    <g id="DESKTOP" stroke="none" stroke-width="1" fill="none" fill-rule="evenodd" opacity="0.8">
        <g id="SITE-d-Copy" transform="translate(-677.000000, -1023.000000)">
            <g id="ABRE" transform="translate(-79.000000, 0.000000)">
                <g id="CIMA">
                    <g id="2" transform="translate(399.000000, 841.000000)">
                        <g id="play" transform="translate(356.333333, 181.666667)">
                            <path d="M43.7736007,1 C67.299081,1 86.3333333,20.0342523 86.3333333,43.7736007 C86.3333333,67.299081 67.299081,86.3333333 43.7736007,86.3333333 C20.0342523,86.3333333 1,67.299081 1,43.7736007 C1,20.0342523 20.0342523,1 43.7736007,1 Z" id="Shape" fill="#B81A49" fill-rule="nonzero"></path>
                            <path d="M56.8195489,40.3517126 L37.3575606,29.2305764 C34.7911445,27.7335004 31.7969925,29.4444444 31.7969925,32.4385965 L31.7969925,54.8947368 C31.7969925,57.8888889 34.7911445,59.5998329 37.3575606,58.1027569 L56.8195489,46.9816207 C59.3859649,45.4845447 59.3859649,41.8487886 56.8195489,40.3517126 Z" id="Path" fill="#FFFFFF"></path>
                        </g>
                    </g>
                </g>
            </g>
        </g>
    </g>
</svg>